<svg width="75" height="80" viewBox="0 0 75 80" fill="none" xmlns="http://www.w3.org/2000/svg">
<path d="M18.5 55.4669L18.9868 55.581L18.988 55.5758L18.5 55.4669ZM19.5 58.1335L19.6675 57.6624L19.5 58.1335ZM23 56.5335L23.4868 56.6476L23 56.5335ZM45 55.4669L44.5122 55.5769L44.5132 55.581L45 55.4669ZM44 58.1335L43.8325 57.6624L44 58.1335ZM40.5 56.5335L40.0132 56.6476L40.5 56.5335ZM19 62.6217L18.7574 63.0589L19.3379 63.381L19.4872 62.7342L19 62.6217ZM44.0146 62.4574C44.0808 62.7255 44.3518 62.8892 44.6199 62.8229C44.888 62.7567 45.0516 62.4857 44.9854 62.2176L44.0146 62.4574ZM28 6.4002L27.506 6.32301L27.5 6.36137V6.4002H28ZM35 6.4002H35.5V6.36137L35.494 6.32301L35 6.4002ZM25.512 21.7579L18.012 55.3579L18.988 55.5758L26.488 21.9758L25.512 21.7579ZM18.0132 55.3528C17.9173 55.762 17.858 56.4018 18.0003 57.0191C18.1452 57.6482 18.5199 58.3157 19.3325 58.6046L19.6675 57.6624C19.2801 57.5247 19.0715 57.2144 18.9747 56.7946C18.8753 56.363 18.916 55.8829 18.9868 55.581L18.0132 55.3528ZM36.8123 21.4436L44.5123 55.5769L45.4877 55.3568L37.7877 21.2235L36.8123 21.4436ZM44.5132 55.581C44.584 55.8829 44.6247 56.363 44.5253 56.7946C44.4285 57.2144 44.2199 57.5247 43.8325 57.6624L44.1675 58.6046C44.9801 58.3157 45.3548 57.6482 45.4997 57.0191C45.642 56.4018 45.5827 55.762 45.4868 55.3528L44.5132 55.581ZM23.4868 56.6476C23.7411 55.5625 25.7731 47.3266 27.8183 39.0535L26.8476 38.8135C24.8038 47.0807 22.7693 55.3265 22.5132 56.4194L23.4868 56.6476ZM27.8183 39.0535C28.3998 36.7013 28.9818 34.0812 29.5229 31.6277C30.0649 29.1702 30.5651 26.8841 30.9853 25.187L30.0147 24.9467C29.5905 26.6595 29.0869 28.9616 28.5464 31.4123C28.005 33.8671 27.4256 36.4754 26.8476 38.8135L27.8183 39.0535ZM40.9868 56.4194C40.7307 55.3265 38.6962 47.0807 36.6524 38.8135L35.6817 39.0535C37.7269 47.3266 39.7589 55.5625 40.0132 56.6476L40.9868 56.4194ZM36.6524 38.8135C36.0744 36.4754 35.495 33.8671 34.9536 31.4123C34.4131 28.9616 33.9095 26.6595 33.4853 24.9467L32.5147 25.187C32.9349 26.8841 33.4351 29.1702 33.9771 31.6277C34.5182 34.0812 35.1002 36.7013 35.6817 39.0535L36.6524 38.8135ZM27.0813 39.3656C28.6842 40.2994 32.802 41.6316 36.4325 39.3572L35.9016 38.5098C32.7214 40.5021 29.0333 39.3454 27.5846 38.5015L27.0813 39.3656ZM19.3325 58.6046C19.5105 58.6679 19.6908 58.725 19.8718 58.773L20.1282 57.8064C19.9777 57.7665 19.8237 57.718 19.6675 57.6624L19.3325 58.6046ZM19.8718 58.773C20.5786 58.9605 21.3552 59.0256 22.0398 58.7074C22.7502 58.3773 23.2417 57.6932 23.4868 56.6476L22.5132 56.4194C22.314 57.2695 21.9664 57.6388 21.6184 57.8005C21.2445 57.9743 20.7433 57.9696 20.1282 57.8064L19.8718 58.773ZM18.2484 62.7696C18.4166 62.8675 18.5862 62.964 18.7574 63.0589L19.2426 62.1845C19.0775 62.0929 18.9138 61.9999 18.7516 61.9054L18.2484 62.7696ZM19.5128 58.1773L18.5128 62.5093L19.4872 62.7342L20.4872 58.4022L19.5128 58.1773ZM43.8325 57.6624C43.6763 57.718 43.5223 57.7665 43.3718 57.8064L43.6282 58.773C43.8092 58.725 43.9895 58.6679 44.1675 58.6046L43.8325 57.6624ZM43.3718 57.8064C42.7567 57.9696 42.2555 57.9743 41.8816 57.8005C41.5336 57.6388 41.186 57.2695 40.9868 56.4194L40.0132 56.6476C40.2583 57.6932 40.7498 58.3773 41.4602 58.7074C42.1448 59.0256 42.9214 58.9605 43.6282 58.773L43.3718 57.8064ZM43.0146 58.4096L44.0146 62.4574L44.9854 62.2176L43.9854 58.1698L43.0146 58.4096ZM28.5 12.2669V6.4002H27.5V12.2669H28.5ZM28.494 6.47738C28.566 6.01679 28.8104 5.30525 29.297 4.71981C29.7709 4.14969 30.4702 3.7002 31.5 3.7002V2.7002C30.1298 2.7002 29.1624 3.31737 28.528 4.08058C27.9063 4.82847 27.6007 5.71693 27.506 6.32301L28.494 6.47738ZM31.5 3.7002C32.5298 3.7002 33.2291 4.14969 33.703 4.71981C34.1896 5.30525 34.434 6.01679 34.506 6.47738L35.494 6.32301C35.3993 5.71693 35.0937 4.82847 34.472 4.08058C33.8376 3.31737 32.8702 2.7002 31.5 2.7002V3.7002ZM34.5 6.4002V12.2669H35.5V6.4002H34.5Z" fill="#2C2C2C"/>
<path d="M20.5 19.1669C20.7761 19.1669 21 18.943 21 18.6669C21 18.3907 20.7761 18.1669 20.5 18.1669V19.1669ZM3.5 18.6669V18.1669H3V18.6669H3.5ZM3.5 76.2669H3V76.7669H3.5V76.2669ZM64.5 76.2669V76.7669H64.5178L64.5355 76.7656L64.5 76.2669ZM71.5 68.2669L71.0011 68.3003L71.5 68.2669ZM57.5 68.2669H57L57.9905 68.3637L57.5 68.2669ZM64.5 11.2002L64.5 10.7002L64.5 11.2002ZM43 18.1669C42.7239 18.1669 42.5 18.3907 42.5 18.6669C42.5 18.943 42.7239 19.1669 43 19.1669V18.1669ZM33 66.6335C33.2761 66.6335 33.5 66.4097 33.5 66.1335C33.5 65.8574 33.2761 65.6335 33 65.6335V66.6335ZM18.5 62.3375L18.7516 61.9054L18.5 62.3375ZM19 62.6217L19.2426 62.1845L19 62.6217ZM20.5 18.1669H3.5V19.1669H20.5V18.1669ZM3.5 76.7669H64.5V75.7669H3.5V76.7669ZM64.5355 76.7656C65.8649 76.6711 67.8214 76.1371 69.4063 74.8254C71.0152 73.4938 72.2098 71.3836 71.9989 68.2335L71.0011 68.3003C71.1902 71.1235 70.1348 72.9244 68.7687 74.055C67.3786 75.2055 65.6351 75.6849 64.4645 75.7681L64.5355 76.7656ZM71.9989 68.2335C71.7306 64.2275 68.513 61.525 65.1145 61.1696C63.4056 60.9909 61.6336 61.4018 60.1549 62.5465C58.6749 63.6921 57.5283 65.5415 57.0095 68.17L57.9905 68.3637C58.4717 65.9256 59.5126 64.3083 60.767 63.3372C62.0226 62.3653 63.5319 62.0095 65.0105 62.1642C67.987 62.4754 70.7694 64.8395 71.0011 68.3003L71.9989 68.2335ZM58 68.2669V18.6669H57V68.2669H58ZM58 18.6669C58 17.5877 58.3284 15.8227 59.3111 14.3435C60.2761 12.891 61.8767 11.7001 64.5 11.7002L64.5 10.7002C61.5091 10.7001 59.6096 12.087 58.4782 13.7901C57.3644 15.4666 57 17.4349 57 18.6669H58ZM64.5 11.7002C67.0777 11.7003 68.6776 12.8129 69.6515 14.2184C70.6429 15.6491 71 17.4095 71 18.6669H72C72 17.2575 71.6071 15.2847 70.4735 13.6488C69.3224 11.9876 67.4223 10.7003 64.5 10.7002L64.5 11.7002ZM71 18.6669V68.2669H72V18.6669H71ZM57.5 18.1669H43V19.1669H57.5V18.1669ZM3 18.6669V42.1335H4V18.6669H3ZM3 42.1335V76.2669H4V42.1335H3ZM3.01493 42.2548C4.42549 47.897 9.1068 57.4478 18.2484 62.7696L18.7516 61.9054C9.9119 56.7594 5.35243 47.4817 3.98507 42.0123L3.01493 42.2548ZM18.2484 62.7696C18.4166 62.8675 18.5862 62.964 18.7574 63.0589L19.2426 62.1845C19.0775 62.0929 18.9138 61.9999 18.7516 61.9054L18.2484 62.7696ZM18.7574 63.0589C22.6877 65.2396 27.4092 66.6335 33 66.6335V65.6335C27.583 65.6335 23.028 64.2848 19.2426 62.1845L18.7574 63.0589Z" fill="#2C2C2C"/>
<path d="M38 18.1332C38 22.0116 35.0599 25.0998 31.5 25.0998C27.9401 25.0998 25 22.0116 25 18.1332C25 14.2547 27.9401 11.1665 31.5 11.1665C35.0599 11.1665 38 14.2547 38 18.1332Z" stroke="#2C2C2C"/>
<path d="M34 18.1331C34 19.6552 32.8508 20.8331 31.5 20.8331C30.1492 20.8331 29 19.6552 29 18.1331C29 16.611 30.1492 15.4331 31.5 15.4331C32.8508 15.4331 34 16.611 34 18.1331Z" stroke="#2C2C2C"/>
</svg>
