<svg width="80" height="80" viewBox="0 0 80 80" fill="none" xmlns="http://www.w3.org/2000/svg">
<path d="M41.6 45.3336L29.3333 57.6002C28.0534 58.8802 28.0889 61.3335 28.2667 62.4002C28.6222 64.5336 27.9598 69.9254 22.9333 73.0669C18.6667 75.7336 11.2 74.6669 7.99999 71.4669C4.79999 68.2669 3.88861 60.9339 7.99999 56.0002C10.6667 52.8002 13.8288 51.7336 17.6 51.7336C20.8 51.7336 21.3333 51.2002 22.4 50.1336L34.1333 38.4002M45.8667 41.0669L59.2 27.7335C59.9111 27.2002 61.76 26.2402 63.4667 26.6669C65.6 27.2002 71.4666 26.1335 74.1333 21.8668C76.2666 18.4534 75.3778 12.9779 74.6666 10.6668L68.2667 17.0668H62.9333V12.2668L69.8667 5.33345C67.3778 4.26678 61.2267 3.20012 56.5333 7.46678C52.4265 11.2002 53.3333 14.9337 53.3333 16.0002C53.5111 16.8892 53.5467 18.987 52.2667 20.2669C50.9867 21.5468 42.4889 30.0446 38.4 34.1336" stroke="black"/>
<path d="M20.9996 67.5843L14.8287 69.2814L10.916 65.1107L12.1457 59.5257L18.3166 57.8286L22.2293 61.9993L20.9996 67.5843Z" stroke="black"/>
<path d="M45.8667 49.5998L12.8 17.0665M12.8 17.0665L10.6667 19.1998L4.79999 7.9998L7.99999 4.7998L19.2 10.6665L17.0667 12.7998M12.8 17.0665L17.0667 12.7998M17.0667 12.7998L50.6667 45.8665" stroke="black"/>
<rect x="42.3071" y="53.8667" width="17.1332" height="5.58444" rx="2.79222" transform="rotate(-45 42.3071 53.8667)" stroke="black"/>
<path d="M48.9782 55.2178L56.2843 47.9116L74.9509 66.5782C76.9685 68.5958 76.9685 71.8668 74.9509 73.8844C72.9334 75.9019 69.6623 75.9019 67.6448 73.8844L48.9782 55.2178Z" stroke="black"/>
</svg>
