<svg width="82" height="80" viewBox="0 0 82 80" fill="none" xmlns="http://www.w3.org/2000/svg">
<g clip-path="url(#clip0)">
<path d="M4.58638 43.3201L7.74365 43.625C8.0815 44.9608 8.62088 46.2376 9.34359 47.411L7.33779 49.8305C7.12624 50.0859 7.1441 50.4604 7.37884 50.6945L10.8163 54.1248C11.0504 54.3589 11.4246 54.3764 11.6794 54.1649L14.1042 52.1547C15.2814 52.8702 16.5579 53.4083 17.8921 53.7512L18.197 56.9088C18.2281 57.2401 18.5032 57.4949 18.8361 57.5002H23.7055C24.038 57.4949 24.3135 57.2401 24.3442 56.9088L24.6491 53.7568C25.9871 53.4206 27.2658 52.8821 28.4414 52.1603L30.8618 54.1662C31.1169 54.3774 31.4908 54.3598 31.7249 54.126L35.1621 50.6955C35.3971 50.4611 35.4147 50.0865 35.2028 49.8311L33.1939 47.4082C33.9094 46.2323 34.4481 44.9576 34.7929 43.625L37.9141 43.3204C38.2444 43.2887 38.4974 43.0126 38.4999 42.681V37.8188C38.4974 37.4872 38.2441 37.2111 37.9138 37.1801L34.7565 36.8752C34.4187 35.5391 33.879 34.2626 33.1566 33.0889L35.1624 30.6694C35.373 30.4149 35.3564 30.0426 35.1242 29.8081L31.7284 26.3779C31.4943 26.1413 31.1185 26.1228 30.8624 26.3353L28.4376 28.3458C27.2605 27.63 25.9839 27.0918 24.6498 26.749L24.3448 23.5914C24.3141 23.2601 24.0386 23.005 23.7058 23H18.8364C18.5035 23.0053 18.2284 23.2601 18.1973 23.5914L17.8924 26.7433C16.5548 27.0793 15.2761 27.6177 14.1005 28.3395L11.6797 26.3337C11.4249 26.1225 11.051 26.1397 10.8166 26.3738L7.37947 29.805C7.14473 30.0391 7.12718 30.4136 7.33873 30.6691L9.34767 33.092C8.63247 34.2679 8.09373 35.5422 7.74898 36.8745L4.58638 37.1798C4.25605 37.2111 4.00282 37.4872 4 37.8188V42.681C4.00282 43.0126 4.25605 43.2887 4.58638 43.3201ZM5.28372 38.4015L8.32189 38.1084C8.59894 38.0818 8.82804 37.8803 8.88947 37.6085C9.22607 36.1067 9.83094 34.6779 10.6746 33.3904C10.8285 33.155 10.811 32.8469 10.6317 32.6304L8.70017 30.3005L11.3099 27.6961L13.641 29.6289C13.8585 29.8094 14.1688 29.826 14.4048 29.6702C15.6873 28.8206 17.1177 28.2192 18.6217 27.897C18.8966 27.8334 19.0996 27.6008 19.126 27.32L19.419 24.2837H23.1232L23.4162 27.32C23.4432 27.5999 23.6472 27.8309 23.9217 27.8917C25.4255 28.2248 26.8565 28.8281 28.1449 29.6718C28.3799 29.8235 28.6858 29.8056 28.9015 29.6276L31.2298 27.698L33.8022 30.2974L31.8675 32.6304C31.6867 32.8485 31.6704 33.1594 31.8274 33.3954C32.6786 34.6754 33.2823 36.1036 33.6073 37.606C33.6693 37.879 33.8997 38.0818 34.1786 38.1081L37.2162 38.4015V42.099L34.2197 42.3918C33.9426 42.4184 33.7141 42.6199 33.6524 42.8913C33.3158 44.3932 32.7112 45.8223 31.8672 47.1098C31.7137 47.3452 31.7312 47.6532 31.9102 47.8698L33.8417 50.1997L31.232 52.8041L28.9011 50.8713C28.6833 50.6908 28.3731 50.6739 28.1374 50.8299C26.8549 51.6796 25.4245 52.281 23.9202 52.6032C23.6456 52.6668 23.4428 52.8994 23.4162 53.1799L23.1232 56.2162H19.419L19.126 53.1799C19.0993 52.9 18.8953 52.669 18.6208 52.6082C17.117 52.2751 15.686 51.6717 14.3976 50.8281C14.1625 50.6764 13.8567 50.6942 13.641 50.8722L11.3102 52.8044L8.70048 50.1997L10.6326 47.8695C10.8135 47.6514 10.8298 47.3405 10.6728 47.1045C9.82154 45.8245 9.21792 44.3963 8.89291 42.8938C8.83086 42.6209 8.6005 42.4181 8.32157 42.3918L5.28372 42.0984V38.4015Z" fill="#2C2C2C"/>
<path d="M21.2561 50.4894C26.9096 50.4894 31.5095 45.8961 31.5095 40.2501C31.5095 34.604 26.9099 30.0107 21.2561 30.0107C15.6019 30.0107 11.0023 34.604 11.0023 40.2501C11.0023 45.8961 15.6022 50.4894 21.2561 50.4894ZM21.2561 31.2945C26.2019 31.2945 30.2258 35.312 30.2258 40.2501C30.2258 45.1881 26.2019 49.2057 21.2561 49.2057C16.3099 49.2057 12.286 45.1881 12.286 40.2501C12.286 35.312 16.3102 31.2945 21.2561 31.2945Z" fill="#2C2C2C"/>
<path d="M24.5 8.5C24.5 8.77614 24.7239 9 25 9C25.2761 9 25.5 8.77614 25.5 8.5H24.5ZM25 1V0.5H24.5V1H25ZM64 1L64.3536 0.646447L64.2071 0.5H64V1ZM64 16.5H63.5V17H64V16.5ZM79.5 16.5H80V16.2929L79.8536 16.1464L79.5 16.5ZM79.5 76.5V77H80V76.5H79.5ZM25 76.5H24.5V77H25V76.5ZM25.5 70C25.5 69.7239 25.2761 69.5 25 69.5C24.7239 69.5 24.5 69.7239 24.5 70H25.5ZM25.5 8.5V1H24.5V8.5H25.5ZM25 1.5H64V0.5H25V1.5ZM63.5 1V16.5H64.5V1H63.5ZM64 17H79.5V16H64V17ZM79.8536 16.1464L64.3536 0.646447L63.6464 1.35355L79.1464 16.8536L79.8536 16.1464ZM79 16.5V76.5H80V16.5H79ZM79.5 76H25V77H79.5V76ZM25.5 76.5V70H24.5V76.5H25.5Z" fill="#2C2C2C"/>
<path d="M48 23.5H71.5M48 31.5H71.5M48 47.5H71.5M48 39.5H71.5M48 55.5H71.5M44 63.5H71.5" stroke="#2C2C2C" stroke-linecap="round"/>
<path d="M1.64645 19.6465C1.45118 19.8418 1.45118 20.1584 1.64645 20.3536C1.84171 20.5489 2.15829 20.5489 2.35355 20.3536L1.64645 19.6465ZM41.0185 21.9997C41.2945 21.9895 41.5099 21.7575 41.4997 21.4816L41.3331 16.9847C41.3229 16.7087 41.0909 16.4933 40.8149 16.5035C40.539 16.5137 40.3236 16.7457 40.3338 17.0217L40.4818 21.0189L36.4846 21.167C36.2086 21.1772 35.9932 21.4092 36.0034 21.6851C36.0136 21.9611 36.2456 22.1765 36.5216 22.1663L41.0185 21.9997ZM41.3536 58.8536C41.5488 58.6583 41.5488 58.3417 41.3536 58.1464C41.1583 57.9512 40.8417 57.9512 40.6464 58.1464L41.3536 58.8536ZM1.98149 56.5003C1.70554 56.5106 1.49012 56.7426 1.50034 57.0185L1.66689 61.5154C1.67712 61.7914 1.9091 62.0068 2.18506 61.9966C2.46101 61.9864 2.67643 61.7544 2.66621 61.4784L2.51816 57.4812L6.51542 57.3331C6.79138 57.3229 7.00679 57.0909 6.99657 56.8149C6.98635 56.539 6.75436 56.3236 6.47841 56.3338L1.98149 56.5003ZM2.35355 20.3536C5.28754 17.4197 10.738 13.9562 17.5094 13.1466C24.2559 12.3399 32.3616 14.1611 40.6598 21.8665L41.3402 21.1337C32.8384 13.2391 24.4441 11.3103 17.3906 12.1536C10.362 12.994 4.71246 16.5805 1.64645 19.6465L2.35355 20.3536ZM40.6464 58.1464C37.7125 61.0804 32.262 64.5439 25.4906 65.3535C18.7441 66.1602 10.6384 64.339 2.34023 56.6336L1.65977 57.3664C10.1616 65.261 18.5559 67.1898 25.6094 66.3465C32.638 65.5061 38.2875 61.9196 41.3536 58.8536L40.6464 58.1464Z" fill="black"/>
</g>
<defs>
<clipPath id="clip0">
<rect width="82" height="80" fill="white"/>
</clipPath>
</defs>
</svg>
