<svg width="72" height="88" viewBox="0 0 72 88" fill="none" xmlns="http://www.w3.org/2000/svg">
<path d="M5.60003 84.5V86.9998H71V68.1598H38.6L54.44 53.5198C60.04 48.3998 63.8 43.8398 65.72 39.8398C67.72 35.7598 68.72 31.4398 68.72 26.8798C68.72 21.7598 67.32 17.2798 64.52 13.4398C61.8 9.51982 57.96 6.51982 53 4.43983C48.12 2.35983 42.48 1.31982 36.08 1.31982C28 1.31982 21 2.87983 15.08 5.99983C9.16003 9.11983 4.56003 13.3998 1.28003 18.8398L18.92 28.6798C20.6 26.0398 22.72 24.0398 25.28 22.6798C27.92 21.2398 30.8 20.5198 33.92 20.5198C37.44 20.5198 40.12 21.2798 41.96 22.7998C43.8 24.3198 44.72 26.4398 44.72 29.1598C44.72 31.2398 44.2 33.3198 43.16 35.3998C42.12 37.3998 40.08 39.8398 37.04 42.7198L33.5 46" stroke="#2C2C2C"/>
<path d="M5.59998 84.5002V72.0002L33.51 45.9902" stroke="#2C2C2C" stroke-dasharray="3 2"/>
</svg>
