<svg width="72" height="88" viewBox="0 0 72 88" fill="none" xmlns="http://www.w3.org/2000/svg">
<path d="M66.68 72.52C64.04 76.76 59.96 80.2 54.44 82.84C49 85.4 42.24 86.68 34.16 86.68C28.24 86.68 22.36 85.96 16.52 84.52C10.76 83.08 5.76002 81.04 1.52002 78.4L10.16 60.52C13.44 62.76 17.12 64.48 21.2 65.68C25.36 66.88 29.44 67.48 33.44 67.48C37.52 67.48 40.76 66.72 43.16 65.2C45.56 63.68 46.76 61.52 46.76 58.72C46.76 53.28 42.48 50.56 33.92 50.56H23.96V35.56L38.96 19.36H5.84002V1H66.56V8.44" stroke="#2C2C2C"/>
<path d="M66.56 8V16L50 34C75.5 38 73.5 62.5 66.62 72.6" stroke="#2C2C2C" stroke-dasharray="3 2"/>
</svg>
