<svg width="169" height="81" viewBox="0 0 169 81" fill="none" xmlns="http://www.w3.org/2000/svg">
<mask id="path-1-inside-1" fill="white">
<path d="M0 5.85034C0 3.08892 2.23858 0.850342 5 0.850342H163.889C166.65 0.850342 168.889 3.08892 168.889 5.85034V49.2948V75.8503C168.889 78.6118 166.65 80.8503 163.889 80.8503H125.333H5C2.23858 80.8503 0 78.6118 0 75.8503V69.7392V5.85034Z"/>
</mask>
<path d="M78.6667 53.2612L78.4122 53.6917L78.6667 53.2612ZM127.915 25.881L127.667 26.3151L127.915 25.881ZM52.155 40.4816L52.3996 40.9176L52.155 40.4816ZM57.1458 40.5382L57.4002 40.1078L57.1458 40.5382ZM0.244625 70.1753L52.3996 40.9176L51.9103 40.0455L-0.244625 69.3032L0.244625 70.1753ZM56.8913 40.9686L78.4122 53.6917L78.9211 52.8308L57.4002 40.1078L56.8913 40.9686ZM78.4122 53.6917L125.079 81.2808L125.588 80.4199L78.9211 52.8308L78.4122 53.6917ZM78.9296 53.6865L123.067 26.3948L122.542 25.5443L78.4037 52.836L78.9296 53.6865ZM127.667 26.3151L168.641 49.7289L169.137 48.8607L128.163 25.4469L127.667 26.3151ZM123.067 26.3948C124.47 25.5275 126.235 25.4969 127.667 26.3151L128.163 25.4469C126.413 24.4469 124.256 24.4842 122.542 25.5443L123.067 26.3948ZM52.3996 40.9176C53.7989 40.1327 55.5102 40.1521 56.8913 40.9686L57.4002 40.1078C55.7122 39.1098 53.6206 39.0861 51.9103 40.0455L52.3996 40.9176ZM5 1.85034H163.889V-0.149658H5V1.85034ZM1 75.8503V69.7392H-1V75.8503H1ZM1 69.7392V5.85034H-1V69.7392H1ZM163.889 79.8503H125.333V81.8503H163.889V79.8503ZM125.333 79.8503H5V81.8503H125.333V79.8503ZM167.889 5.85034V49.2948H169.889V5.85034H167.889ZM167.889 49.2948V75.8503H169.889V49.2948H167.889ZM-1 75.8503C-1 79.1641 1.68629 81.8503 5 81.8503V79.8503C2.79086 79.8503 1 78.0595 1 75.8503H-1ZM163.889 81.8503C167.203 81.8503 169.889 79.164 169.889 75.8503H167.889C167.889 78.0595 166.098 79.8503 163.889 79.8503V81.8503ZM163.889 1.85034C166.098 1.85034 167.889 3.64121 167.889 5.85034H169.889C169.889 2.53663 167.203 -0.149658 163.889 -0.149658V1.85034ZM5 -0.149658C1.68629 -0.149658 -1 2.53663 -1 5.85034H1C1 3.6412 2.79086 1.85034 5 1.85034V-0.149658Z" fill="#2C2C2C" mask="url(#path-1-inside-1)"/>
<circle cx="81.3333" cy="19.0724" r="7.05556" stroke="#2C2C2C"/>
</svg>
