<svg width="170" height="88" viewBox="0 0 170 88" fill="none" xmlns="http://www.w3.org/2000/svg">
<path d="M84.5 1L84.7015 0.542381L84.5 0.453694L84.2985 0.542381L84.5 1ZM56 13.5465L55.7985 13.0889L55.5 13.2203V13.5465H56ZM113 13.5465H113.5V13.2203L113.201 13.0889L113 13.5465ZM56 52.4535H55.5V52.7797L55.7985 52.9111L56 52.4535ZM113 52.4535L113.201 52.9111L113.5 52.7797V52.4535H113ZM84.5 39.9069L84.7015 39.4493L84.5 39.3606L84.2985 39.4493L84.5 39.9069ZM84.5 65L84.2985 65.4576L84.5 65.5463L84.7015 65.4576L84.5 65ZM84.2985 0.542381L55.7985 13.0889L56.2015 14.0042L84.7015 1.45762L84.2985 0.542381ZM55.7985 14.0042L84.2985 26.5507L84.7015 25.6355L56.2015 13.0889L55.7985 14.0042ZM84.7015 26.5507L113.201 14.0042L112.799 13.0889L84.2985 25.6355L84.7015 26.5507ZM113.201 13.0889L84.7015 0.542381L84.2985 1.45762L112.799 14.0042L113.201 13.0889ZM112.5 13.5465V52.4535H113.5V13.5465H112.5ZM55.5 13.5465V52.4535H56.5V13.5465H55.5ZM84.2985 39.4493L55.7985 51.9958L56.2015 52.9111L84.7015 40.3645L84.2985 39.4493ZM55.7985 52.9111L84.2985 65.4576L84.7015 64.5424L56.2015 51.9958L55.7985 52.9111ZM84.7015 65.4576L113.201 52.9111L112.799 51.9958L84.2985 64.5424L84.7015 65.4576ZM113.201 51.9958L84.7015 39.4493L84.2985 40.3645L112.799 52.9111L113.201 51.9958ZM84 26.0931V65H85V26.0931H84Z" fill="#2C2C2C"/>
<path d="M100.5 83.7198L100.518 84.2195L100.5 83.7198ZM69.5 83.7198L69.4817 84.2195L69.5 83.7198ZM93.9895 83.4066C93.7135 83.4124 93.4943 83.6409 93.5001 83.917C93.5059 84.1931 93.7344 84.4122 94.0105 84.4064L93.9895 83.4066ZM76 83.9065L76.2021 84.3639L77.2693 83.8922L76.1917 83.4447L76 83.9065ZM1.5 67.5001C1.5 66.0102 2.70894 64.4623 5.33218 62.9252C7.92266 61.4074 11.7372 59.9948 16.5886 58.7225C26.2835 56.1801 39.9991 54.2283 56.036 53.0695L55.964 52.0721C39.8989 53.233 26.1146 55.1906 16.3349 57.7552C11.4491 59.0365 7.53273 60.4769 4.82664 62.0624C2.15332 63.6288 0.5 65.4348 0.5 67.5001H1.5ZM112.965 52.9988C129.264 54.1304 143.23 56.0815 153.109 58.6394C158.053 59.9194 161.944 61.344 164.587 62.8766C167.265 64.4291 168.5 65.9943 168.5 67.5001H169.5C169.5 65.4139 167.813 63.5911 165.089 62.0115C162.33 60.412 158.338 58.9602 153.36 57.6714C143.396 55.0916 129.362 53.1347 113.035 52.0012L112.965 52.9988ZM168.5 67.5001C168.5 68.3458 168.116 69.2184 167.288 70.1175C166.458 71.0192 165.206 71.9179 163.546 72.7973C160.225 74.5554 155.365 76.1849 149.256 77.6146C137.047 80.4721 119.956 82.5065 100.482 83.2201L100.518 84.2195C120.031 83.5045 137.191 81.4654 149.484 78.5883C155.627 77.1507 160.582 75.4977 164.013 73.681C165.729 72.773 167.088 71.8113 168.024 70.7949C168.962 69.7758 169.5 68.6726 169.5 67.5001H168.5ZM69.5183 83.2201C50.0438 82.5065 32.9533 80.4721 20.7436 77.6146C14.6347 76.1849 9.77515 74.5554 6.45447 72.7973C4.79361 71.9179 3.54239 71.0192 2.71208 70.1175C1.88421 69.2184 1.5 68.3458 1.5 67.5001H0.5C0.5 68.6726 1.03806 69.7758 1.97645 70.7949C2.9124 71.8113 4.27143 72.773 5.98656 73.681C9.41783 75.4977 14.3731 77.1507 20.5158 78.5883C32.8092 81.4654 49.9687 83.5045 69.4817 84.2195L69.5183 83.2201ZM100.482 83.2201C98.3451 83.2984 96.1799 83.3608 93.9895 83.4066L94.0105 84.4064C96.206 84.3605 98.3764 84.2979 100.518 84.2195L100.482 83.2201ZM76.0104 83.4066C73.82 83.3608 71.6549 83.2984 69.5183 83.2201L69.4817 84.2195C71.6236 84.2979 73.7939 84.3605 75.9895 84.4064L76.0104 83.4066ZM76.1917 83.4447L69.1917 80.5382L68.8083 81.4618L75.8082 84.3683L76.1917 83.4447ZM75.7979 83.4492L68.7979 86.5427L69.2021 87.4573L76.2021 84.3639L75.7979 83.4492Z" fill="#2C2C2C"/>
</svg>
