<svg width="169" height="80" viewBox="0 0 169 80" fill="none" xmlns="http://www.w3.org/2000/svg">
<path d="M29.7556 13.8756C30.3428 6.32636 36.6399 0.5 44.2119 0.5H124.899C132.471 0.5 138.768 6.32638 139.355 13.8756L143.244 63.8756C143.9 72.3015 137.239 79.5 128.788 79.5H128.753H128.718H128.683H128.648H128.613H128.578H128.543H128.508H128.473H128.438H128.403H128.368H128.332H128.297H128.262H128.227H128.192H128.157H128.121H128.086H128.051H128.016H127.98H127.945H127.91H127.875H127.839H127.804H127.769H127.733H127.698H127.663H127.627H127.592H127.557H127.521H127.486H127.45H127.415H127.38H127.344H127.309H127.273H127.238H127.202H127.167H127.131H127.096H127.06H127.025H126.989H126.954H126.918H126.883H126.847H126.812H126.776H126.741H126.705H126.669H126.634H126.598H126.563H126.527H126.491H126.456H126.42H126.384H126.349H126.313H126.278H126.242H126.206H126.17H126.135H126.099H126.063H126.028H125.992H125.956H125.921H125.885H125.849H125.813H125.778H125.742H125.706H125.67H125.635H125.599H125.563H125.527H125.491H125.456H125.42H125.384H125.348H125.312H125.277H125.241H125.205H125.169H125.133H125.098H125.062H125.026H124.99H124.954H124.918H124.883H124.847H124.811H124.775H124.739H124.703H124.667H124.632H124.596H124.56H124.524H124.488H124.452H124.416H124.38H124.345H124.309H124.273H124.237H124.201H124.165H124.129H124.093H124.057H124.022H123.986H123.95H123.914H123.878H123.842H123.806H123.77H123.734H123.698H123.663H123.627H123.591H123.555H123.519H123.483H123.447H123.411H123.375H123.34H123.304H123.268H123.232H123.196H123.16H123.124H123.088H123.052H123.017H122.981H122.945H122.909H122.873H122.837H122.801H122.766H122.73H122.694H122.658H122.622H122.586H122.55H122.515H122.479H122.443H122.407H122.371H122.335H122.3H122.264H122.228H122.192H122.156H122.12H122.085H122.049H122.013H121.977H121.942H121.906H121.87H121.834H121.798H121.763H121.727H121.691H121.655H121.62H121.584H121.548H121.513H121.477H121.441H121.405H121.37H121.334H121.298H121.263H121.227H121.191H121.156H121.12H121.084H121.049H121.013H120.977H120.942H120.906H120.871H120.835H120.799H120.764H120.728H120.693H120.657H120.622H120.586H120.55H120.515H120.479H120.444H120.408H120.373H120.337H120.302H120.266H120.231H120.196H120.16H120.125H120.089H120.054H120.018H119.983H119.948H119.912H119.877H119.842H119.806H119.771H119.736H119.7H119.665H119.63H119.594H119.559H119.524H119.489H119.453H119.418H119.383H119.348H119.312H119.277H119.242H119.207H119.172H119.137H119.101H119.066H119.031H118.996H118.961H118.926H118.891H118.856H118.821H118.786H118.751H118.716H118.681H118.646H118.611H118.576H118.541H118.506H118.471H118.436H118.401H118.367H118.332H118.297H118.262H118.227H118.193H118.158H118.123H118.088H118.053H118.019H117.984H117.949H117.915H117.88H117.845H117.811H117.776H117.742H117.707H117.672H117.638H117.603H117.569H117.534H117.5H117.465H117.431H117.396H117.362H117.328H117.293H117.259H117.224H117.19H117.156H117.121H117.087H117.053H117.019H116.984H116.95H116.916H116.882H116.848H116.813H116.779H116.745H116.711H116.677H116.643H116.609H116.575H116.541H116.507H116.473H116.439H116.405H116.371H116.337H116.303H116.269H116.236H116.202H116.168H116.134H116.1H116.067H116.033H115.999H115.966H115.932H115.898H115.865H115.831H115.798H115.764H115.73H115.697H115.663H115.63H115.596H115.563H115.53H115.496H115.463H115.43H115.396H115.363H115.33H115.296H115.263H115.23H115.197H115.164H115.13H115.097H115.064H115.031H114.998H114.965H114.932H114.899H114.866H114.833H114.8H114.767H114.734H114.701H114.669H114.636H114.603H114.57H114.538H114.505H114.472H114.44H114.407H114.374H114.342H114.309H114.277H114.244H114.212H114.179H114.147H114.114H114.082H114.05H114.017H113.985H113.953H113.92H113.888H113.856H113.824H113.792H113.759H113.727H113.695H113.663H113.631H113.599H113.567H113.535H113.503H113.471H113.44H113.408H113.376H113.344H113.312H113.281H113.249H113.217H113.186H113.154H113.122H113.091H113.059H113.028H112.996H112.965H112.933H112.902H112.871H112.839H112.808H112.777H112.746H112.714H112.683H112.652H112.621H112.59H112.559H112.528H112.497H112.466H112.435H112.404H112.373H112.342H112.311H112.28H112.25H112.219H112.188H112.157H112.127H112.096H112.066H112.035H112.005H111.974H111.944H111.913H111.883H111.852H111.822H111.792H111.761H111.731H111.701H111.671H111.641H111.611H111.581H111.551H111.521H111.491H111.461H111.431H111.401H111.371H111.341H111.311H111.282H111.252H111.222C108.252 79.5 105.658 78.3358 103.287 76.5454C100.909 74.75 98.7832 72.3453 96.7536 69.9027C96.3603 69.4294 95.9701 68.9539 95.5823 68.4813C93.9839 66.5336 92.4257 64.6348 90.8576 63.1383C88.912 61.2816 86.8528 59.9444 84.5555 59.9444C82.2478 59.9444 80.3248 61.2923 78.5493 63.155C77.2648 64.5026 76.0016 66.1827 74.6921 67.9246C74.1959 68.5845 73.6931 69.2533 73.18 69.9162C69.3996 74.7999 64.9634 79.5 57.8889 79.5H57.8558H57.8227H57.7896H57.7564H57.7233H57.6901H57.6569H57.6237H57.5905H57.5573H57.5241H57.4908H57.4576H57.4243H57.391H57.3577H57.3244H57.291H57.2577H57.2243H57.191H57.1576H57.1242H57.0908H57.0573H57.0239H56.9904H56.9569H56.9235H56.89H56.8565H56.8229H56.7894H56.7558H56.7223H56.6887H56.6551H56.6215H56.5879H56.5543H56.5206H56.487H56.4533H56.4196H56.3859H56.3522H56.3185H56.2848H56.2511H56.2173H56.1835H56.1498H56.116H56.0822H56.0484H56.0145H55.9807H55.9469H55.913H55.8791H55.8452H55.8114H55.7774H55.7435H55.7096H55.6757H55.6417H55.6078H55.5738H55.5398H55.5058H55.4718H55.4378H55.4038H55.3697H55.3357H55.3016H55.2676H55.2335H55.1994H55.1653H55.1312H55.0971H55.0629H55.0288H54.9947H54.9605H54.9263H54.8922H54.858H54.8238H54.7896H54.7553H54.7211H54.6869H54.6526H54.6184H54.5841H54.5498H54.5156H54.4813H54.447H54.4127H54.3783H54.344H54.3097H54.2753H54.241H54.2066H54.1723H54.1379H54.1035H54.0691H54.0347H54.0003H53.9659H53.9314H53.897H53.8626H53.8281H53.7936H53.7592H53.7247H53.6902H53.6557H53.6212H53.5867H53.5522H53.5177H53.4832H53.4486H53.4141H53.3795H53.345H53.3104H53.2758H53.2413H53.2067H53.1721H53.1375H53.1029H53.0683H53.0337H52.999H52.9644H52.9298H52.8951H52.8605H52.8258H52.7912H52.7565H52.7218H52.6871H52.6525H52.6178H52.5831H52.5484H52.5137H52.4789H52.4442H52.4095H52.3748H52.34H52.3053H52.2705H52.2358H52.201H52.1663H52.1315H52.0967H52.062H52.0272H51.9924H51.9576H51.9228H51.888H51.8532H51.8184H51.7836H51.7488H51.7139H51.6791H51.6443H51.6094H51.5746H51.5398H51.5049H51.4701H51.4352H51.4004H51.3655H51.3306H51.2958H51.2609H51.226H51.1911H51.1563H51.1214H51.0865H51.0516H51.0167H50.9818H50.9469H50.912H50.8771H50.8422H50.8073H50.7724H50.7374H50.7025H50.6676H50.6327H50.5978H50.5628H50.5279H50.493H50.458H50.4231H50.3881H50.3532H50.3183H50.2833H50.2484H50.2134H50.1785H50.1435H50.1086H50.0736H50.0387H50.0037H49.9687H49.9338H49.8988H49.8639H49.8289H49.7939H49.759H49.724H49.689H49.6541H49.6191H49.5841H49.5492H49.5142H49.4792H49.4443H49.4093H49.3743H49.3394H49.3044H49.2694H49.2344H49.1995H49.1645H49.1295H49.0946H49.0596H49.0246H48.9896H48.9547H48.9197H48.8847H48.8498H48.8148H48.7798H48.7449H48.7099H48.675H48.64H48.605H48.5701H48.5351H48.5002H48.4652H48.4303H48.3953H48.3603H48.3254H48.2904H48.2555H48.2206H48.1856H48.1507H48.1157H48.0808H48.0459H48.0109H47.976H47.9411H47.9061H47.8712H47.8363H47.8014H47.7665H47.7316H47.6966H47.6617H47.6268H47.5919H47.557H47.5221H47.4872H47.4523H47.4174H47.3826H47.3477H47.3128H47.2779H47.2431H47.2082H47.1733H47.1385H47.1036H47.0688H47.0339H46.9991H46.9642H46.9294H46.8945H46.8597H46.8249H46.7901H46.7553H46.7204H46.6856H46.6508H46.616H46.5812H46.5464H46.5117H46.4769H46.4421H46.4073H46.3726H46.3378H46.303H46.2683H46.2335H46.1988H46.1641H46.1293H46.0946H46.0599H46.0252H45.9905H45.9558H45.9211H45.8864H45.8517H45.817H45.7823H45.7477H45.713H45.6784H45.6437H45.6091H45.5744H45.5398H45.5052H45.4706H45.436H45.4014H45.3668H45.3322H45.2976H45.263H45.2284H45.1939H45.1593H45.1248H45.0902H45.0557H45.0212H44.9866H44.9521H44.9176H44.8831H44.8486H44.8142H44.7797H44.7452H44.7108H44.6763H44.6419H44.6074H44.573H44.5386H44.5042H44.4698H44.4354H44.401H44.3666H44.3322H44.2979H44.2635H44.2292H44.1948H44.1605H44.1262H44.0919H44.0576H44.0233H43.989H43.9547H43.9205H43.8862H43.852H43.8178H43.7835H43.7493H43.7151H43.6809H43.6467H43.6125H43.5784H43.5442H43.5101H43.4759H43.4418H43.4077H43.3736H43.3395H43.3054H43.2713H43.2372H43.2032H43.1691H43.1351H43.1011H43.0671H43.0331H42.9991H42.9651H42.9311H42.8972H42.8632H42.8293H42.7954H42.7614H42.7275H42.6936H42.6598H42.6259H42.592H42.5582H42.5244H42.4905H42.4567H42.4229H42.3891H42.3554H42.3216H42.2878H42.2541H42.2204H42.1867H42.153H42.1193H42.0856H42.0519H42.0183H41.9846H41.951H41.9174H41.8838H41.8502H41.8166H41.7831H41.7495H41.716H41.6825H41.6489H41.6155H41.582H41.5485H41.515H41.4816H41.4482H41.4148H41.3813H41.348H41.3146H41.2812H41.2479H41.2145H41.1812H41.1479H41.1146H41.0814H41.0481H41.0148H40.9816H40.9484H40.9152H40.882H40.8488H40.8157H40.7825H40.7494H40.7163H40.6832H40.6501H40.617H40.584H40.5509H40.5179H40.4849H40.4519H40.4189H40.3859H40.353H40.3201C31.8689 79.5 25.2114 72.3016 25.8667 63.8756L29.7556 13.8756Z" stroke="#2C2C2C"/>
<path d="M143.222 63.1111H149.222C154.745 63.1111 159.222 58.6339 159.222 53.1111V24.2222C159.222 18.6993 154.745 14.2222 149.222 14.2222H139.667" stroke="#2C2C2C"/>
<path d="M159.222 52.4444L161.111 52.4444C164.977 52.4444 168.111 49.3104 168.111 45.4444V31C168.111 27.134 164.977 24 161.111 24H159.222" stroke="#2C2C2C"/>
<path d="M25.8889 63.1111H19.8889C14.3661 63.1111 9.8889 58.6339 9.8889 53.1111V24.2222C9.8889 18.6993 14.3661 14.2222 19.8889 14.2222H29.4445" stroke="#2C2C2C"/>
<path d="M9.88892 52.4444L8.00003 52.4444C4.13403 52.4444 1.00003 49.3104 1.00003 45.4444V31C1.00003 27.134 4.13404 24 8.00003 24H9.88892" stroke="#2C2C2C"/>
<path d="M72.1111 16.3889C71.8349 16.3889 71.6111 16.6128 71.6111 16.8889C71.6111 17.1651 71.8349 17.3889 72.1111 17.3889V16.3889ZM97 17.3889C97.2761 17.3889 97.5 17.1651 97.5 16.8889C97.5 16.6128 97.2761 16.3889 97 16.3889V17.3889ZM72.1111 17.3889H97V16.3889H72.1111V17.3889Z" fill="#2C2C2C"/>
</svg>
