<svg width="195" height="44" viewBox="0 0 195 44" fill="none" xmlns="http://www.w3.org/2000/svg">
<path d="M67.26 35L60.42 25.424L53.652 35H48.324L57.684 22.148L48.828 9.8H54.12L60.564 18.764L66.936 9.8H72.012L63.192 21.968L72.66 35H67.26ZM86.1271 26.108V35H81.4471V26.18L71.5471 9.8H76.5511L83.9311 22.076L91.3831 9.8H95.9911L86.1271 26.108ZM118.64 31.04V35H97.1479V31.868L111.98 13.76H97.3999V9.8H118.172V12.932L103.34 31.04H118.64ZM125.303 35.12C124.279 35.12 123.295 34.976 122.351 34.688C121.423 34.384 120.695 34.008 120.167 33.56L120.935 32.216C121.463 32.632 122.127 32.976 122.927 33.248C123.727 33.504 124.559 33.632 125.423 33.632C126.575 33.632 127.423 33.456 127.967 33.104C128.527 32.736 128.807 32.224 128.807 31.568C128.807 31.104 128.655 30.744 128.351 30.488C128.047 30.216 127.663 30.016 127.199 29.888C126.735 29.744 126.119 29.608 125.351 29.48C124.327 29.288 123.503 29.096 122.879 28.904C122.255 28.696 121.719 28.352 121.271 27.872C120.839 27.392 120.623 26.728 120.623 25.88C120.623 24.824 121.063 23.96 121.943 23.288C122.823 22.616 124.047 22.28 125.615 22.28C126.431 22.28 127.247 22.392 128.063 22.616C128.879 22.824 129.551 23.104 130.079 23.456L129.335 24.824C128.295 24.104 127.055 23.744 125.615 23.744C124.527 23.744 123.703 23.936 123.143 24.32C122.599 24.704 122.327 25.208 122.327 25.832C122.327 26.312 122.479 26.696 122.783 26.984C123.103 27.272 123.495 27.488 123.959 27.632C124.423 27.76 125.063 27.896 125.879 28.04C126.887 28.232 127.695 28.424 128.303 28.616C128.911 28.808 129.431 29.136 129.863 29.6C130.295 30.064 130.511 30.704 130.511 31.52C130.511 32.624 130.047 33.504 129.119 34.16C128.207 34.8 126.935 35.12 125.303 35.12ZM140.309 34.232C139.989 34.52 139.589 34.744 139.109 34.904C138.645 35.048 138.157 35.12 137.645 35.12C136.461 35.12 135.549 34.8 134.909 34.16C134.269 33.52 133.949 32.616 133.949 31.448V23.816H131.693V22.376H133.949V19.616H135.653V22.376H139.493V23.816H135.653V31.352C135.653 32.104 135.837 32.68 136.205 33.08C136.589 33.464 137.133 33.656 137.837 33.656C138.189 33.656 138.525 33.6 138.845 33.488C139.181 33.376 139.469 33.216 139.709 33.008L140.309 34.232ZM154.787 22.376V35H153.155V32.696C152.707 33.464 152.091 34.064 151.307 34.496C150.523 34.912 149.627 35.12 148.619 35.12C146.971 35.12 145.667 34.664 144.707 33.752C143.763 32.824 143.291 31.472 143.291 29.696V22.376H144.995V29.528C144.995 30.856 145.323 31.864 145.979 32.552C146.635 33.24 147.571 33.584 148.787 33.584C150.115 33.584 151.163 33.184 151.931 32.384C152.699 31.568 153.083 30.44 153.083 29V22.376H154.787ZM171.08 17.192V35H169.448V32.504C168.936 33.352 168.256 34 167.408 34.448C166.576 34.896 165.632 35.12 164.576 35.12C163.392 35.12 162.32 34.848 161.36 34.304C160.4 33.76 159.648 33 159.104 32.024C158.56 31.048 158.288 29.936 158.288 28.688C158.288 27.44 158.56 26.328 159.104 25.352C159.648 24.376 160.4 23.624 161.36 23.096C162.32 22.552 163.392 22.28 164.576 22.28C165.6 22.28 166.52 22.496 167.336 22.928C168.168 23.344 168.848 23.96 169.376 24.776V17.192H171.08ZM164.72 33.608C165.6 33.608 166.392 33.408 167.096 33.008C167.816 32.592 168.376 32.008 168.776 31.256C169.192 30.504 169.4 29.648 169.4 28.688C169.4 27.728 169.192 26.872 168.776 26.12C168.376 25.368 167.816 24.792 167.096 24.392C166.392 23.976 165.6 23.768 164.72 23.768C163.824 23.768 163.016 23.976 162.296 24.392C161.592 24.792 161.032 25.368 160.616 26.12C160.216 26.872 160.016 27.728 160.016 28.688C160.016 29.648 160.216 30.504 160.616 31.256C161.032 32.008 161.592 32.592 162.296 33.008C163.016 33.408 163.824 33.608 164.72 33.608ZM175.825 22.376H177.529V35H175.825V22.376ZM176.689 19.616C176.337 19.616 176.041 19.496 175.801 19.256C175.561 19.016 175.441 18.728 175.441 18.392C175.441 18.072 175.561 17.792 175.801 17.552C176.041 17.312 176.337 17.192 176.689 17.192C177.041 17.192 177.337 17.312 177.577 17.552C177.817 17.776 177.937 18.048 177.937 18.368C177.937 18.72 177.817 19.016 177.577 19.256C177.337 19.496 177.041 19.616 176.689 19.616ZM187.431 35.12C186.215 35.12 185.119 34.848 184.143 34.304C183.167 33.744 182.399 32.976 181.839 32C181.279 31.024 180.999 29.92 180.999 28.688C180.999 27.456 181.279 26.352 181.839 25.376C182.399 24.4 183.167 23.64 184.143 23.096C185.119 22.552 186.215 22.28 187.431 22.28C188.647 22.28 189.743 22.552 190.719 23.096C191.695 23.64 192.455 24.4 192.999 25.376C193.559 26.352 193.839 27.456 193.839 28.688C193.839 29.92 193.559 31.024 192.999 32C192.455 32.976 191.695 33.744 190.719 34.304C189.743 34.848 188.647 35.12 187.431 35.12ZM187.431 33.608C188.327 33.608 189.127 33.408 189.831 33.008C190.551 32.592 191.111 32.008 191.511 31.256C191.911 30.504 192.111 29.648 192.111 28.688C192.111 27.728 191.911 26.872 191.511 26.12C191.111 25.368 190.551 24.792 189.831 24.392C189.127 23.976 188.327 23.768 187.431 23.768C186.535 23.768 185.727 23.976 185.007 24.392C184.303 24.792 183.743 25.368 183.327 26.12C182.927 26.872 182.727 27.728 182.727 28.688C182.727 29.648 182.927 30.504 183.327 31.256C183.743 32.008 184.303 32.592 185.007 33.008C185.727 33.408 186.535 33.608 187.431 33.608Z" fill="#2C2C2C"/>
<path d="M4.8 35.1C3.94667 35.1 3.12667 34.98 2.34 34.74C1.56667 34.4867 0.96 34.1733 0.52 33.8L1.16 32.68C1.6 33.0267 2.15333 33.3133 2.82 33.54C3.48667 33.7533 4.18 33.86 4.9 33.86C5.86 33.86 6.56667 33.7133 7.02 33.42C7.48667 33.1133 7.72 32.6867 7.72 32.14C7.72 31.7533 7.59333 31.4533 7.34 31.24C7.08667 31.0133 6.76667 30.8467 6.38 30.74C5.99333 30.62 5.48 30.5067 4.84 30.4C3.98667 30.24 3.3 30.08 2.78 29.92C2.26 29.7467 1.81333 29.46 1.44 29.06C1.08 28.66 0.9 28.1067 0.9 27.4C0.9 26.52 1.26667 25.8 2 25.24C2.73333 24.68 3.75333 24.4 5.06 24.4C5.74 24.4 6.42 24.4933 7.1 24.68C7.78 24.8533 8.34 25.0867 8.78 25.38L8.16 26.52C7.29333 25.92 6.26 25.62 5.06 25.62C4.15333 25.62 3.46667 25.78 3 26.1C2.54667 26.42 2.32 26.84 2.32 27.36C2.32 27.76 2.44667 28.08 2.7 28.32C2.96667 28.56 3.29333 28.74 3.68 28.86C4.06667 28.9667 4.6 29.08 5.28 29.2C6.12 29.36 6.79333 29.52 7.3 29.68C7.80667 29.84 8.24 30.1133 8.6 30.5C8.96 30.8867 9.14 31.42 9.14 32.1C9.14 33.02 8.75333 33.7533 7.98 34.3C7.22 34.8333 6.16 35.1 4.8 35.1ZM11.9052 35.1C11.6118 35.1 11.3585 34.9933 11.1452 34.78C10.9452 34.5667 10.8452 34.3067 10.8452 34C10.8452 33.6933 10.9452 33.44 11.1452 33.24C11.3585 33.0267 11.6118 32.92 11.9052 32.92C12.1985 32.92 12.4518 33.0267 12.6652 33.24C12.8785 33.44 12.9852 33.6933 12.9852 34C12.9852 34.3067 12.8785 34.5667 12.6652 34.78C12.4518 34.9933 12.1985 35.1 11.9052 35.1ZM17.3634 26.54C17.6968 25.8333 18.1901 25.3 18.8434 24.94C19.5101 24.58 20.3301 24.4 21.3034 24.4V25.78L20.9634 25.76C19.8568 25.76 18.9901 26.1 18.3634 26.78C17.7368 27.46 17.4234 28.4133 17.4234 29.64V35H16.0034V24.48H17.3634V26.54ZM23.9755 35.1C23.6821 35.1 23.4288 34.9933 23.2155 34.78C23.0155 34.5667 22.9155 34.3067 22.9155 34C22.9155 33.6933 23.0155 33.44 23.2155 33.24C23.4288 33.0267 23.6821 32.92 23.9755 32.92C24.2688 32.92 24.5221 33.0267 24.7355 33.24C24.9488 33.44 25.0555 33.6933 25.0555 34C25.0555 34.3067 24.9488 34.5667 24.7355 34.78C24.5221 34.9933 24.2688 35.1 23.9755 35.1ZM32.0808 35.1C31.0674 35.1 30.1541 34.8733 29.3408 34.42C28.5274 33.9533 27.8874 33.3133 27.4208 32.5C26.9541 31.6867 26.7208 30.7667 26.7208 29.74C26.7208 28.7133 26.9541 27.7933 27.4208 26.98C27.8874 26.1667 28.5274 25.5333 29.3408 25.08C30.1541 24.6267 31.0674 24.4 32.0808 24.4C33.0941 24.4 34.0074 24.6267 34.8208 25.08C35.6341 25.5333 36.2674 26.1667 36.7208 26.98C37.1874 27.7933 37.4208 28.7133 37.4208 29.74C37.4208 30.7667 37.1874 31.6867 36.7208 32.5C36.2674 33.3133 35.6341 33.9533 34.8208 34.42C34.0074 34.8733 33.0941 35.1 32.0808 35.1ZM32.0808 33.84C32.8274 33.84 33.4941 33.6733 34.0808 33.34C34.6808 32.9933 35.1474 32.5067 35.4808 31.88C35.8141 31.2533 35.9808 30.54 35.9808 29.74C35.9808 28.94 35.8141 28.2267 35.4808 27.6C35.1474 26.9733 34.6808 26.4933 34.0808 26.16C33.4941 25.8133 32.8274 25.64 32.0808 25.64C31.3341 25.64 30.6608 25.8133 30.0608 26.16C29.4741 26.4933 29.0074 26.9733 28.6608 27.6C28.3274 28.2267 28.1608 28.94 28.1608 29.74C28.1608 30.54 28.3274 31.2533 28.6608 31.88C29.0074 32.5067 29.4741 32.9933 30.0608 33.34C30.6608 33.6733 31.3341 33.84 32.0808 33.84Z" fill="#2C2C2C"/>
</svg>
