<svg width="47" height="54" viewBox="0 0 47 54" fill="none" xmlns="http://www.w3.org/2000/svg">
<path d="M23.5 1L23.7007 0.542058L23.5 0.454079L23.2993 0.542058L23.5 1ZM1 10.8621L0.799278 10.4041L0.5 10.5353V10.8621H1ZM23.5 20.7241L23.2993 21.1821L23.5 21.2701L23.7007 21.1821L23.5 20.7241ZM46 10.8621H46.5V10.5353L46.2007 10.4041L46 10.8621ZM0.5 43.1379C0.5 43.4141 0.723858 43.6379 1 43.6379C1.27614 43.6379 1.5 43.4141 1.5 43.1379H0.5ZM23.5 53L23.2993 53.4579L23.5 53.5459L23.7007 53.4579L23.5 53ZM45.5 43.1379C45.5 43.4141 45.7239 43.6379 46 43.6379C46.2761 43.6379 46.5 43.4141 46.5 43.1379H45.5ZM23.8536 27.9913C23.6583 27.796 23.3417 27.796 23.1464 27.9913L19.9645 31.1733C19.7692 31.3685 19.7692 31.6851 19.9645 31.8804C20.1597 32.0756 20.4763 32.0756 20.6716 31.8804L23.5 29.0519L26.3284 31.8804C26.5237 32.0756 26.8403 32.0756 27.0355 31.8804C27.2308 31.6851 27.2308 31.3685 27.0355 31.1733L23.8536 27.9913ZM39.2657 46.4757C39.3662 46.2184 39.2391 45.9285 38.9819 45.828L34.7902 44.1911C34.5329 44.0907 34.243 44.2178 34.1425 44.475C34.0421 44.7322 34.1692 45.0222 34.4264 45.1226L38.1524 46.5777L36.6973 50.3036C36.5969 50.5608 36.724 50.8508 36.9812 50.9513C37.2384 51.0517 37.5284 50.9246 37.6288 50.6674L39.2657 46.4757ZM8.01812 45.828C7.76089 45.9285 7.6338 46.2184 7.73426 46.4757L9.37119 50.6674C9.47164 50.9246 9.76159 51.0517 10.0188 50.9513C10.276 50.8508 10.4031 50.5608 10.3027 50.3036L8.84763 46.5777L12.5736 45.1226C12.8308 45.0222 12.9579 44.7322 12.8575 44.475C12.757 44.2178 12.4671 44.0907 12.2098 44.1911L8.01812 45.828ZM23.2993 0.542058L0.799278 10.4041L1.20072 11.32L23.7007 1.45794L23.2993 0.542058ZM0.799278 11.32L23.2993 21.1821L23.7007 20.2662L1.20072 10.4041L0.799278 11.32ZM23.7007 21.1821L46.2007 11.32L45.7993 10.4041L23.2993 20.2662L23.7007 21.1821ZM46.2007 10.4041L23.7007 0.542058L23.2993 1.45794L45.7993 11.32L46.2007 10.4041ZM45.5 10.8621V43.1379H46.5V10.8621H45.5ZM0.5 10.8621V43.1379H1.5V10.8621H0.5ZM24 53V28.3448H23V53H24ZM23.7007 53.4579L39.0007 46.7517L38.5993 45.8359L23.2993 52.5421L23.7007 53.4579ZM7.99928 46.7517L23.2993 53.4579L23.7007 52.5421L8.40072 45.8359L7.99928 46.7517Z" fill="#FFFCF6"/>
</svg>
