<svg width="146" height="27" viewBox="0 0 146 27" fill="none" xmlns="http://www.w3.org/2000/svg">
<path d="M19.26 26L12.42 16.424L5.65201 26H0.324005L9.68401 13.148L0.828005 0.799988H6.12001L12.564 9.76399L18.936 0.799988H24.012L15.192 12.968L24.66 26H19.26Z" fill="#FFFCF6"/>
<path d="M38.1271 17.108V26H33.4471V17.18L23.5471 0.799988H28.5511L35.9311 13.076L43.3831 0.799988H47.9911L38.1271 17.108Z" fill="#FFFCF6"/>
<path d="M70.6399 22.04V26H49.1479V22.868L63.9799 4.75999H49.3999V0.799988H70.1719V3.93199L55.3399 22.04H70.6399Z" fill="#FFFCF6"/>
<path d="M77.303 26.12C76.279 26.12 75.295 25.976 74.351 25.688C73.423 25.384 72.695 25.008 72.167 24.56L72.935 23.216C73.463 23.632 74.127 23.976 74.927 24.248C75.727 24.504 76.559 24.632 77.423 24.632C78.575 24.632 79.423 24.456 79.967 24.104C80.527 23.736 80.807 23.224 80.807 22.568C80.807 22.104 80.655 21.744 80.351 21.488C80.047 21.216 79.663 21.016 79.199 20.888C78.735 20.744 78.119 20.608 77.351 20.48C76.327 20.288 75.503 20.096 74.879 19.904C74.255 19.696 73.719 19.352 73.271 18.872C72.839 18.392 72.623 17.728 72.623 16.88C72.623 15.824 73.063 14.96 73.943 14.288C74.823 13.616 76.047 13.28 77.615 13.28C78.431 13.28 79.247 13.392 80.063 13.616C80.879 13.824 81.551 14.104 82.079 14.456L81.335 15.824C80.295 15.104 79.055 14.744 77.615 14.744C76.527 14.744 75.703 14.936 75.143 15.32C74.599 15.704 74.327 16.208 74.327 16.832C74.327 17.312 74.479 17.696 74.783 17.984C75.103 18.272 75.495 18.488 75.959 18.632C76.423 18.76 77.063 18.896 77.879 19.04C78.887 19.232 79.695 19.424 80.303 19.616C80.911 19.808 81.431 20.136 81.863 20.6C82.295 21.064 82.511 21.704 82.511 22.52C82.511 23.624 82.047 24.504 81.119 25.16C80.207 25.8 78.935 26.12 77.303 26.12Z" fill="#FFFCF6"/>
<path d="M92.3092 25.232C91.9892 25.52 91.5892 25.744 91.1092 25.904C90.6452 26.048 90.1572 26.12 89.6452 26.12C88.4612 26.12 87.5492 25.8 86.9092 25.16C86.2692 24.52 85.9492 23.616 85.9492 22.448V14.816H83.6932V13.376H85.9492V10.616H87.6532V13.376H91.4932V14.816H87.6532V22.352C87.6532 23.104 87.8372 23.68 88.2052 24.08C88.5892 24.464 89.1332 24.656 89.8372 24.656C90.1892 24.656 90.5252 24.6 90.8452 24.488C91.1812 24.376 91.4692 24.216 91.7092 24.008L92.3092 25.232Z" fill="#FFFCF6"/>
<path d="M106.787 13.376V26H105.155V23.696C104.707 24.464 104.091 25.064 103.307 25.496C102.523 25.912 101.627 26.12 100.619 26.12C98.9712 26.12 97.6672 25.664 96.7072 24.752C95.7632 23.824 95.2912 22.472 95.2912 20.696V13.376H96.9952V20.528C96.9952 21.856 97.3232 22.864 97.9792 23.552C98.6352 24.24 99.5712 24.584 100.787 24.584C102.115 24.584 103.163 24.184 103.931 23.384C104.699 22.568 105.083 21.44 105.083 20V13.376H106.787Z" fill="#FFFCF6"/>
<path d="M123.08 8.19199V26H121.448V23.504C120.936 24.352 120.256 25 119.408 25.448C118.576 25.896 117.632 26.12 116.576 26.12C115.392 26.12 114.32 25.848 113.36 25.304C112.4 24.76 111.648 24 111.104 23.024C110.56 22.048 110.288 20.936 110.288 19.688C110.288 18.44 110.56 17.328 111.104 16.352C111.648 15.376 112.4 14.624 113.36 14.096C114.32 13.552 115.392 13.28 116.576 13.28C117.6 13.28 118.52 13.496 119.336 13.928C120.168 14.344 120.848 14.96 121.376 15.776V8.19199H123.08ZM116.72 24.608C117.6 24.608 118.392 24.408 119.096 24.008C119.816 23.592 120.376 23.008 120.776 22.256C121.192 21.504 121.4 20.648 121.4 19.688C121.4 18.728 121.192 17.872 120.776 17.12C120.376 16.368 119.816 15.792 119.096 15.392C118.392 14.976 117.6 14.768 116.72 14.768C115.824 14.768 115.016 14.976 114.296 15.392C113.592 15.792 113.032 16.368 112.616 17.12C112.216 17.872 112.016 18.728 112.016 19.688C112.016 20.648 112.216 21.504 112.616 22.256C113.032 23.008 113.592 23.592 114.296 24.008C115.016 24.408 115.824 24.608 116.72 24.608Z" fill="#FFFCF6"/>
<path d="M127.825 13.376H129.529V26H127.825V13.376ZM128.689 10.616C128.337 10.616 128.041 10.496 127.801 10.256C127.561 10.016 127.441 9.72799 127.441 9.39199C127.441 9.07199 127.561 8.79199 127.801 8.55199C128.041 8.31199 128.337 8.19199 128.689 8.19199C129.041 8.19199 129.337 8.31199 129.577 8.55199C129.817 8.77599 129.937 9.04799 129.937 9.36799C129.937 9.71999 129.817 10.016 129.577 10.256C129.337 10.496 129.041 10.616 128.689 10.616Z" fill="#FFFCF6"/>
<path d="M139.431 26.12C138.215 26.12 137.119 25.848 136.143 25.304C135.167 24.744 134.399 23.976 133.839 23C133.279 22.024 132.999 20.92 132.999 19.688C132.999 18.456 133.279 17.352 133.839 16.376C134.399 15.4 135.167 14.64 136.143 14.096C137.119 13.552 138.215 13.28 139.431 13.28C140.647 13.28 141.743 13.552 142.719 14.096C143.695 14.64 144.455 15.4 144.999 16.376C145.559 17.352 145.839 18.456 145.839 19.688C145.839 20.92 145.559 22.024 144.999 23C144.455 23.976 143.695 24.744 142.719 25.304C141.743 25.848 140.647 26.12 139.431 26.12ZM139.431 24.608C140.327 24.608 141.127 24.408 141.831 24.008C142.551 23.592 143.111 23.008 143.511 22.256C143.911 21.504 144.111 20.648 144.111 19.688C144.111 18.728 143.911 17.872 143.511 17.12C143.111 16.368 142.551 15.792 141.831 15.392C141.127 14.976 140.327 14.768 139.431 14.768C138.535 14.768 137.727 14.976 137.007 15.392C136.303 15.792 135.743 16.368 135.327 17.12C134.927 17.872 134.727 18.728 134.727 19.688C134.727 20.648 134.927 21.504 135.327 22.256C135.743 23.008 136.303 23.592 137.007 24.008C137.727 24.408 138.535 24.608 139.431 24.608Z" fill="#FFFCF6"/>
</svg>
